HIERARCHY
ROOT pelvis
{
  OFFSET 0 100 0
  CHANNELS 6 Xposition Yposition Zposition Zrotation Xrotation Yrotation
  JOINT pelvis_right_femur
  {
    OFFSET -10.78128 -3.44521 -0.5502486
    CHANNELS 3 Zrotation Xrotation Yrotation
    JOINT right_femur_tibia
    {
      OFFSET -0.8047443 -44.0398 -0.1307829
      CHANNELS 3 Zrotation Xrotation Yrotation
      JOINT right_tibia_foot
      {
        OFFSET 3.006224 -47.83518 -5
        CHANNELS 3 Zrotation Xrotation Yrotation
        End Site
        {
          OFFSET 0 -5 15
        }
      }
    }
  }
  JOINT pelvis_left_femur
  {
    OFFSET 10.78128 -3.44521 -0.5502486
    CHANNELS 3 Zrotation Xrotation Yrotation
    JOINT left_femur_tibia
    {
      OFFSET 0.8047443 -44.0398 -0.1307829
      CHANNELS 3 Zrotation Xrotation Yrotation
      JOINT left_tibia_foot
      {
        OFFSET -4.370144 -48.10324 -4.275266
        CHANNELS 3 Zrotation Xrotation Yrotation
        End Site
        {
          OFFSET 0 -5 15
        }
      }
    }
  }
  JOINT pelvis_spine1
  {
    OFFSET 0 6.468898 -3.129235
    CHANNELS 3 Zrotation Xrotation Yrotation
    JOINT spine1
    {
      OFFSET 0 23.15396 4.99043
      CHANNELS 3 Zrotation Xrotation Yrotation
      JOINT spine2
      {
        OFFSET 0 20.79997 -5.064912
        CHANNELS 3 Zrotation Xrotation Yrotation
        JOINT neck
        {
          OFFSET 0 14.38658 9.616178
          CHANNELS 3 Zrotation Xrotation Yrotation
          End Site
          {
            OFFSET 0 20 0
          }
        }
      }
      JOINT right_manubrium
      {
        OFFSET -5.722621 16.35077 3.967754
        CHANNELS 3 Zrotation Xrotation Yrotation
        JOINT right_clavicle
        {
          OFFSET -13.16364 1.694482 -4.693211
          CHANNELS 3 Zrotation Xrotation Yrotation
          JOINT right_humerus
          {
            OFFSET -28.5034 -0.3100689 -2.792744
            CHANNELS 3 Zrotation Xrotation Yrotation
            JOINT right_radius
            {
              OFFSET -25.15693 0.02248979 -1.271978
              CHANNELS 3 Zrotation Xrotation Yrotation
              End Site
              {
                OFFSET -15 0 0
              }
            }
          }
        }
      }
      JOINT left_manubrium
      {
        OFFSET 5.722621 16.35077 3.967754
        CHANNELS 3 Zrotation Xrotation Yrotation
        JOINT left_clavicle
        {
          OFFSET 13.16364 1.694482 -4.693211
          CHANNELS 3 Zrotation Xrotation Yrotation
          JOINT left_humerus
          {
            OFFSET 29.39168 -1.063119 -2.237045
            CHANNELS 3 Zrotation Xrotation Yrotation
            JOINT left_radius
            {
              OFFSET 24.59957 -0.9528479 0.9047498
              CHANNELS 3 Zrotation Xrotation Yrotation
              End Site
              {
                OFFSET 15 -0 -0
              }
            }
          }
        }
      }
    }
  }
}
MOTION
Frames: 15
Frame Time: 0.0416666666667
472.5044 103.0034 1363.471 -0.3054304 0.5882184 30.40917 5.60088 -21.83304 10.74928 -0 33.56471 -0 -5.667549 -13.23452 -3.697286 -6.946019 13.91156 -21.45078 -0 11.3489 -0 7.725689 -14.02213 26.4258 -1.680634 -3.367367 5.27488 1.813997 9.896316 -7.893251 1.532519 21.8873 7.350371 2.773782 -25.63751 10.75195 4.641583 -20.63947 10.22336 90.46748 36.96212 -23.62572 -0 0 12.0978 -5.926316 9.178898 3.478886 5.270738 -20.87308 -2.92664 -91.61515 30.60571 21.18053 0 0 -27.35139 8.324755 14.0663 8.400027
474.1436 103.0044 1365.885 -0.3060473 0.5878977 30.46928 5.60088 -21.83304 10.74928 -0 33.56471 -0 -5.667549 -13.23452 -3.697286 -6.946019 13.91156 -21.45078 -0 11.3489 -0 7.725689 -14.02213 26.4258 -1.680634 -3.367367 5.27488 1.813997 9.896316 -7.893251 1.532519 21.8873 7.350371 2.773782 -25.63751 10.75195 4.641583 -20.63947 10.22336 90.46748 36.96212 -23.62572 -0 0 12.0978 -5.926316 9.178898 3.478886 5.270738 -20.87308 -2.92664 -91.61515 30.60571 21.18053 0 0 -27.35139 8.324755 14.0663 8.400027
475.7853 103.0054 1368.298 -0.3066639 0.5875763 30.52939 5.60088 -21.83304 10.74928 -0 33.56471 -0 -5.667549 -13.23452 -3.697286 -6.946019 13.91156 -21.45078 -0 11.3489 -0 7.725689 -14.02213 26.4258 -1.680634 -3.367367 5.27488 1.813997 9.896316 -7.893251 1.532519 21.8873 7.350371 2.773782 -25.63751 10.75195 4.641583 -20.63947 10.22336 90.46748 36.96212 -23.62572 -0 0 12.0978 -5.926316 9.178898 3.478886 5.270738 -20.87308 -2.92664 -91.61515 30.60571 21.18053 0 0 -27.35139 8.324755 14.0663 8.400027
477.4295 103.0065 1370.709 -0.3072801 0.5872542 30.5895 5.60088 -21.83304 10.74928 -0 33.56471 -0 -5.667549 -13.23452 -3.697286 -6.946019 13.91156 -21.45078 -0 11.3489 -0 7.725689 -14.02213 26.4258 -1.680634 -3.367367 5.27488 1.813997 9.896316 -7.893251 1.532519 21.8873 7.350371 2.773782 -25.63751 10.75195 4.641583 -20.63947 10.22336 90.46748 36.96212 -23.62572 -0 0 12.0978 -5.926316 9.178898 3.478886 5.270738 -20.87308 -2.92664 -91.61515 30.60571 21.18053 0 0 -27.35139 8.324755 14.0663 8.400027
479.0763 103.0075 1373.118 -0.3078961 0.5869316 30.64961 5.60088 -21.83304 10.74928 -0 33.56471 -0 -5.667549 -13.23452 -3.697286 -6.946019 13.91156 -21.45078 -0 11.3489 -0 7.725689 -14.02213 26.4258 -1.680634 -3.367367 5.27488 1.813997 9.896316 -7.893251 1.532519 21.8873 7.350371 2.773782 -25.63751 10.75195 4.641583 -20.63947 10.22336 90.46748 36.96212 -23.62572 -0 0 12.0978 -5.926316 9.178898 3.478886 5.270738 -20.87308 -2.92664 -91.61515 30.60571 21.18053 0 0 -27.35139 8.324755 14.0663 8.400027
480.7256 103.0085 1375.525 -0.3085116 0.5866082 30.70972 5.60088 -21.83304 10.74928 -0 33.56471 -0 -5.667549 -13.23452 -3.697286 -6.946019 13.91156 -21.45078 -0 11.3489 -0 7.725689 -14.02213 26.4258 -1.680634 -3.367367 5.27488 1.813997 9.896316 -7.893251 1.532519 21.8873 7.350371 2.773782 -25.63751 10.75195 4.641583 -20.63947 10.22336 90.46748 36.96212 -23.62572 -0 0 12.0978 -5.926316 9.178898 3.478886 5.270738 -20.87308 -2.92664 -91.61515 30.60571 21.18053 0 0 -27.35139 8.324755 14.0663 8.400027
482.3774 103.0095 1377.931 -0.3091269 0.5862843 30.76983 5.60088 -21.83304 10.74928 -0 33.56471 -0 -5.667549 -13.23452 -3.697286 -6.946019 13.91156 -21.45078 -0 11.3489 -0 7.725689 -14.02213 26.4258 -1.680634 -3.367367 5.27488 1.813997 9.896316 -7.893251 1.532519 21.8873 7.350371 2.773782 -25.63751 10.75195 4.641583 -20.63947 10.22336 90.46748 36.96212 -23.62572 -0 0 12.0978 -5.926316 9.178898 3.478886 5.270738 -20.87308 -2.92664 -91.61515 30.60571 21.18053 0 0 -27.35139 8.324755 14.0663 8.400027
484.0318 103.0105 1380.335 -0.3097418 0.5859596 30.82994 5.60088 -21.83304 10.74928 -0 33.56471 -0 -5.667549 -13.23452 -3.697286 -6.946019 13.91156 -21.45078 -0 11.3489 -0 7.725689 -14.02213 26.4258 -1.680634 -3.367367 5.27488 1.813997 9.896316 -7.893251 1.532519 21.8873 7.350371 2.773782 -25.63751 10.75195 4.641583 -20.63947 10.22336 90.46748 36.96212 -23.62572 -0 0 12.0978 -5.926316 9.178898 3.478886 5.270738 -20.87308 -2.92664 -91.61515 30.60571 21.18053 0 0 -27.35139 8.324755 14.0663 8.400027
485.6887 103.0116 1382.737 -0.3103563 0.5856344 30.89005 5.60088 -21.83304 10.74928 -0 33.56471 -0 -5.667549 -13.23452 -3.697286 -6.946019 13.91156 -21.45078 -0 11.3489 -0 7.725689 -14.02213 26.4258 -1.680634 -3.367367 5.27488 1.813997 9.896316 -7.893251 1.532519 21.8873 7.350371 2.773782 -25.63751 10.75195 4.641583 -20.63947 10.22336 90.46748 36.96212 -23.62572 -0 0 12.0978 -5.926316 9.178898 3.478886 5.270738 -20.87308 -2.92664 -91.61515 30.60571 21.18053 0 0 -27.35139 8.324755 14.0663 8.400027
487.348 103.0126 1385.138 -0.3109706 0.5853085 30.95016 5.60088 -21.83304 10.74928 -0 33.56471 -0 -5.667549 -13.23452 -3.697286 -6.946019 13.91156 -21.45078 -0 11.3489 -0 7.725689 -14.02213 26.4258 -1.680634 -3.367367 5.27488 1.813997 9.896316 -7.893251 1.532519 21.8873 7.350371 2.773782 -25.63751 10.75195 4.641583 -20.63947 10.22336 90.46748 36.96212 -23.62572 -0 0 12.0978 -5.926316 9.178898 3.478886 5.270738 -20.87308 -2.92664 -91.61515 30.60571 21.18053 0 0 -27.35139 8.324755 14.0663 8.400027
489.01 103.0136 1387.537 -0.3115844 0.5849819 31.01027 5.60088 -21.83304 10.74928 -0 33.56471 -0 -5.667549 -13.23452 -3.697286 -6.946019 13.91156 -21.45078 -0 11.3489 -0 7.725689 -14.02213 26.4258 -1.680634 -3.367367 5.27488 1.813997 9.896316 -7.893251 1.532519 21.8873 7.350371 2.773782 -25.63751 10.75195 4.641583 -20.63947 10.22336 90.46748 36.96212 -23.62572 -0 0 12.0978 -5.926316 9.178898 3.478886 5.270738 -20.87308 -2.92664 -91.61515 30.60571 21.18053 0 0 -27.35139 8.324755 14.0663 8.400027
490.6744 103.0146 1389.934 -0.312198 0.5846547 31.07038 5.60088 -21.83304 10.74928 -0 33.56471 -0 -5.667549 -13.23452 -3.697286 -6.946019 13.91156 -21.45078 -0 11.3489 -0 7.725689 -14.02213 26.4258 -1.680634 -3.367367 5.27488 1.813997 9.896316 -7.893251 1.532519 21.8873 7.350371 2.773782 -25.63751 10.75195 4.641583 -20.63947 10.22336 90.46748 36.96212 -23.62572 -0 0 12.0978 -5.926316 9.178898 3.478886 5.270738 -20.87308 -2.92664 -91.61515 30.60571 21.18053 0 0 -27.35139 8.324755 14.0663 8.400027
492.3413 103.0156 1392.329 -0.3128111 0.5843269 31.13048 5.60088 -21.83304 10.74928 -0 33.56471 -0 -5.667549 -13.23452 -3.697286 -6.946019 13.91156 -21.45078 -0 11.3489 -0 7.725689 -14.02213 26.4258 -1.680634 -3.367367 5.27488 1.813997 9.896316 -7.893251 1.532519 21.8873 7.350371 2.773782 -25.63751 10.75195 4.641583 -20.63947 10.22336 90.46748 36.96212 -23.62572 -0 0 12.0978 -5.926316 9.178898 3.478886 5.270738 -20.87308 -2.92664 -91.61515 30.60571 21.18053 0 0 -27.35139 8.324755 14.0663 8.400027
494.0108 103.0166 1394.722 -0.313424 0.5839984 31.19059 5.60088 -21.83304 10.74928 -0 33.56471 -0 -5.667549 -13.23452 -3.697286 -6.946019 13.91156 -21.45078 -0 11.3489 -0 7.725689 -14.02213 26.4258 -1.680634 -3.367367 5.27488 1.813997 9.896316 -7.893251 1.532519 21.8873 7.350371 2.773782 -25.63751 10.75195 4.641583 -20.63947 10.22336 90.46748 36.96212 -23.62572 -0 0 12.0978 -5.926316 9.178898 3.478886 5.270738 -20.87308 -2.92664 -91.61515 30.60571 21.18053 0 0 -27.35139 8.324755 14.0663 8.400027
495.6827 103.0177 1397.114 -0.3140365 0.5836693 31.2507 5.60088 -21.83304 10.74928 -0 33.56471 -0 -5.667549 -13.23452 -3.697286 -6.946019 13.91156 -21.45078 -0 11.3489 -0 7.725689 -14.02213 26.4258 -1.680634 -3.367367 5.27488 1.813997 9.896316 -7.893251 1.532519 21.8873 7.350371 2.773782 -25.63751 10.75195 4.641583 -20.63947 10.22336 90.46748 36.96212 -23.62572 -0 0 12.0978 -5.926316 9.178898 3.478886 5.270738 -20.87308 -2.92664 -91.61515 30.60571 21.18053 0 0 -27.35139 8.324755 14.0663 8.400027
